<?xml version="1.0" encoding="utf-8"?>
<svg viewBox="0 0 512 512" width="512" height="512" xmlns="http://www.w3.org/2000/svg">
  <path d="M 209.809 290.38 C 200.605 314.918 197.693 336.967 212.488 352.252 C 238.275 378.9 300.43 360.379 350.992 312.425 C 358.371 305.41 365.867 297.956 371.942 290.525 C 377.932 283.266 378.72 284.124 373.191 291.532 C 365.079 302.7 355.424 313.688 344.406 324.004 C 293.74 371.435 237.113 386.166 209.896 360.915 C 193.759 345.942 195.901 317.816 208.118 290.619 C 211.343 283.299 213.068 282.12 209.809 290.38" class="pL" fill="#B4A5C2" style=""/>
  <path d="M 217.702 259.052 C 217.702 270.522 215.909 281.2 206.129 281.2 C 196.682 281.2 194.553 270.522 194.553 259.052 C 194.553 247.475 196.461 236.346 206.129 236.346 C 215.908 236.346 217.702 247.476 217.702 259.052 Z M 231.314 259.166 C 231.314 241.072 223.223 227.691 206.129 227.691 C 189.156 227.691 180.947 241.072 180.947 259.166 C 180.947 277.041 189.156 290.53 206.129 290.53 C 223.099 290.529 231.314 277.041 231.314 259.166 Z" class="pD" fill="#4A266D" style=""/>
  <path d="M 310.154 289.409 L 310.154 246.402 C 310.154 241.128 307.194 236.527 299.798 236.527 C 295.597 236.527 292.408 237.866 289.575 240.677 L 289.575 289.409 L 275.703 289.409 L 275.703 246.067 C 275.703 240.232 271.722 236.412 264.216 236.412 C 260.123 236.412 257.835 236.973 255.116 238.089 L 255.116 289.407 L 241.254 289.407 L 241.254 232.147 C 247.379 229.226 253.979 227.767 264.216 227.767 C 274.106 227.767 279.792 230.582 283.315 234.394 C 287.407 230.695 293.656 227.767 302.987 227.767 C 317.535 227.767 324.021 236.753 324.021 246.296 L 324.021 289.409 L 310.154 289.409" class="o" fill="#C9502A" style=""/>
  <path d="M 370.06 281.219 C 368.023 282.223 364.948 282.903 361.762 282.903 C 353.692 282.903 348.91 279.53 348.91 271.674 C 348.91 260.674 356.989 257.863 370.058 256.286 L 370.058 281.219 L 370.06 281.219 Z M 383.022 286.154 L 383.022 248.655 C 383.022 233.047 373.018 227.767 360.394 227.767 C 350.736 227.767 343.345 230.462 339.365 232.375 L 342.551 240.234 C 346.305 238.436 351.987 236.527 357.904 236.527 C 365.061 236.527 370.06 238.662 370.06 246.522 L 370.06 249.779 C 351.416 251.578 335.844 256.172 335.844 272.12 C 335.844 283.801 344.141 290.53 360.858 290.53 C 370.397 290.529 378.131 288.731 383.022 286.154 Z" class="o" fill="#C9502A" style=""/>
  <path d="M 425.36 237.865 C 420.708 236.303 415.587 236.526 412.408 238.322 L 412.408 289.409 L 398.534 289.409 L 398.534 232.147 C 404.913 229.111 412.642 227.433 428.09 227.88 L 425.36 237.865" class="o" fill="#C9502A" style=""/>
  <path d="M 470.096 253.367 L 444.737 257.192 C 444.392 242.7 449.962 236.193 458.038 236.193 C 465.656 236.193 470.096 241.128 470.096 253.367 Z M 483.053 258.754 C 483.616 238.436 474.752 227.767 458.492 227.767 C 442.463 227.767 432.345 239.216 432.345 258.984 C 432.345 279.416 443.383 290.529 460.762 290.529 C 470.096 290.529 476.686 288.63 481.007 286.274 L 477.704 277.617 C 474.407 279.297 469.293 280.979 462.243 280.979 C 452.121 280.979 446.667 275.379 445.533 264.146 L 483.053 258.754 Z" class="o" fill="#C9502A" style=""/>
  <path d="M 97.835 253.367 L 72.48 257.192 C 72.132 242.7 77.712 236.193 85.777 236.193 C 93.391 236.193 97.835 241.128 97.835 253.367 Z M 110.786 258.754 C 111.36 238.436 102.488 227.767 86.23 227.767 C 70.201 227.767 60.084 239.216 60.084 258.984 C 60.084 279.416 71.113 290.529 88.515 290.529 C 97.839 290.529 104.424 288.63 108.747 286.274 L 105.449 277.617 C 102.147 279.297 97.029 280.979 89.985 280.979 C 79.861 280.979 74.413 275.379 73.281 264.146 L 110.786 258.754 Z" class="pD" fill="#4A266D" style=""/>
  <path d="M 122.742 201.276 L 136.614 201.276 L 136.614 289.409 L 122.742 289.409 L 122.742 201.276 Z" class="pD" fill="#4A266D" style=""/>
  <path d="M 154.081 228.89 L 167.952 228.89 L 167.952 289.407 L 154.081 289.407 L 154.081 228.89 Z" class="pD" fill="#4A266D" style=""/>
  <path d="M 161.414 219.285 C 157.514 219.576 154.124 216.64 153.841 212.742 C 153.556 208.847 156.483 205.45 160.387 205.162 C 164.28 204.879 167.678 207.806 167.957 211.705 C 168.253 215.612 165.318 219.006 161.414 219.285" class="o" fill="#C9502A" style=""/>
  <path d="M 34.343 289.364 L 34.343 246.43 C 34.343 240.99 31.839 236.116 23.574 236.116 C 19.834 236.116 16.893 236.796 13.833 238.606 L 13.833 289.364 L 0 289.364 L 0 200.429 L 13.833 200.429 L 13.833 230.905 C 18.47 228.635 22.778 227.614 27.422 227.614 C 42.831 227.614 48.157 236.687 48.157 246.08 L 48.157 289.364 L 34.343 289.364" class="pD" fill="#4A266D" style=""/>
  <path d="M 475.289 331.567 C 467.531 332.131 460.804 326.306 460.235 318.563 C 459.665 310.81 465.49 304.076 473.237 303.508 C 480.974 302.934 487.709 308.758 488.293 316.505 C 488.859 324.258 483.035 330.996 475.289 331.567" class="pD" fill="#4A266D" style=""/>
  <path d="M 258.623 220.443 C 270.327 209.825 283.149 200.083 297.861 191.309 C 375.984 144.72 465.289 147.735 495.866 197.653 C 513.184 225.941 508.303 263.316 486.611 298.879 C 485.969 299.801 485.561 302.485 487.789 299.351 C 512.977 261.713 520.078 219.842 501.62 189.696 C 470.833 139.428 381.576 138.185 302.913 185.099 C 285.696 195.371 270.397 207.161 257.309 219.853 C 255.746 221.351 254.505 224.089 258.623 220.443" class="pL" fill="#B4A5C2" style=""/>
  <path d="M 388.122 277.284 C 407.575 245.167 410.378 199.307 387.578 170.536 C 350.015 123.14 261.227 129.515 187.652 186.028 C 181.198 190.99 175.076 196.169 169.309 201.521 C 167.176 203.66 168.052 204.499 170.39 202.378 C 174.278 199.005 178.297 195.702 182.479 192.494 C 255.902 136.094 345.239 129.172 381.997 177.033 C 402.175 203.303 403.775 245.422 387.177 276.733 C 385.136 280.295 386.026 281.535 388.122 277.284" class="pL" fill="#B4A5C2" style=""/>
</svg>