<svg xmlns:xlink="http://www.w3.org/1999/xlink" xml:space="preserve" enable-background="new 0 0 512 512" viewBox="0 0 512 512" y="0px" x="0px" xmlns="http://www.w3.org/2000/svg" version="1.1" width="512"  height="512" >
				<path d="M122.686 89.354c-5.382 14.349-7.085 27.242 1.567 36.18 15.079 15.582 51.424 4.752 80.99-23.289 4.315-4.102 8.698-8.461 12.251-12.806 3.502-4.245 3.963-3.743 0.73 0.589 -4.744 6.53-10.389 12.955-16.832 18.988 -29.627 27.735-62.74 36.349-78.655 21.583 -9.436-8.755-8.184-25.202-1.04-41.105C123.583 85.213 124.592 84.524 122.686 89.354" class="pL" fill="#B4A5C2"></path>







				<path d="M127.302 71.035c0 6.707-1.049 12.951-6.768 12.951 -5.524 0-6.769-6.244-6.769-12.951 0-6.77 1.116-13.277 6.769-13.277C126.252 57.758 127.302 64.266 127.302 71.035L127.302 71.035 127.302 71.035zM135.261 71.102c0-10.581-4.731-18.406-14.727-18.406 -9.925 0-14.725 7.825-14.725 18.406 0 10.452 4.8 18.34 14.725 18.34C130.457 89.441 135.261 81.554 135.261 71.102L135.261 71.102 135.261 71.102z" class="pD" fill="#4A266D"></path>







				<path d="M181.363 88.786V63.638c0-3.084-1.731-5.774-6.056-5.774 -2.456 0-4.321 0.783-5.978 2.426v28.496h-8.111V63.442c0-3.412-2.328-5.646-6.717-5.646 -2.394 0-3.732 0.328-5.321 0.981v30.008h-8.106V55.302c3.581-1.708 7.441-2.561 13.427-2.561 5.783 0 9.108 1.646 11.168 3.875 2.393-2.163 6.047-3.875 11.503-3.875 8.507 0 12.3 5.255 12.3 10.835v25.21H181.363" class="o" fill="#C9502A"></path>







				<path d="M216.393 83.997c-1.191 0.587-2.989 0.985-4.852 0.985 -4.719 0-7.515-1.973-7.515-6.566 0-6.433 4.724-8.076 12.366-8.998V83.997L216.393 83.997 216.393 83.997zM223.973 86.883V64.955c0-9.127-5.85-12.214-13.232-12.214 -5.648 0-9.969 1.576-12.297 2.695l1.863 4.595c2.195-1.051 5.518-2.167 8.978-2.167 4.185 0 7.108 1.248 7.108 5.844v1.905c-10.902 1.052-20.008 3.738-20.008 13.064 0 6.83 4.852 10.765 14.627 10.765C216.59 89.441 221.113 88.39 223.973 86.883L223.973 86.883 223.973 86.883z" class="o" fill="#C9502A"></path>







				<path d="M248.73 58.646c-2.721-0.914-5.715-0.783-7.574 0.267v29.873h-8.113V55.302c3.73-1.775 8.25-2.756 17.283-2.495L248.73 58.646" class="o" fill="#C9502A"></path>







				<path d="M274.889 67.711l-14.828 2.236c-0.202-8.474 3.055-12.279 7.777-12.279C272.293 57.668 274.889 60.554 274.889 67.711L274.889 67.711 274.889 67.711zM282.466 70.861c0.329-11.881-4.854-18.12-14.362-18.12 -9.373 0-15.29 6.695-15.29 18.254 0 11.948 6.455 18.446 16.617 18.446 5.458 0 9.312-1.11 11.839-2.488l-1.932-5.062c-1.928 0.982-4.918 1.966-9.041 1.966 -5.919 0-9.108-3.275-9.771-9.843L282.466 70.861 282.466 70.861 282.466 70.861z" class="o" fill="#C9502A"></path>







				<path d="M57.209 67.711l-14.826 2.236c-0.204-8.474 3.059-12.279 7.775-12.279C54.611 57.668 57.209 60.554 57.209 67.711L57.209 67.711 57.209 67.711zM64.782 70.861c0.336-11.881-4.852-18.12-14.359-18.12 -9.373 0-15.289 6.695-15.289 18.254 0 11.948 6.45 18.446 16.625 18.446 5.452 0 9.303-1.11 11.831-2.488l-1.928-5.062c-1.931 0.982-4.924 1.966-9.043 1.966 -5.92 0-9.106-3.275-9.768-9.843L64.782 70.861 64.782 70.861 64.782 70.861z" class="pD" fill="#4A266D"></path>







				<path d="M71.774 37.25h8.111v51.536h-8.111V37.25L71.774 37.25z" class="pD" fill="#4A266D"></path>







				<path d="M90.099 53.398h8.111v35.387h-8.111V53.398L90.099 53.398z" class="pD" fill="#4A266D"></path>







				<path d="M94.387 47.781c-2.28 0.17-4.263-1.546-4.428-3.826 -0.167-2.277 1.545-4.264 3.828-4.432 2.276-0.166 4.263 1.546 4.426 3.826C98.386 45.633 96.67 47.618 94.387 47.781" class="o" fill="#C9502A"></path>







				<path d="M20.082 88.76V63.654c0-3.181-1.464-6.031-6.297-6.031 -2.187 0-3.907 0.398-5.696 1.456V88.76H0V36.755h8.089v17.821c2.711-1.327 5.231-1.924 7.946-1.924 9.011 0 12.125 5.305 12.125 10.798V88.76H20.082" class="pD" fill="#4A266D"></path>







				<path d="M277.926 113.438c-4.537 0.33-8.47-3.076-8.803-7.604 -0.333-4.533 3.073-8.471 7.603-8.803 4.524-0.336 8.463 3.07 8.804 7.6C285.861 109.164 282.455 113.104 277.926 113.438" class="pD" fill="#4A266D"></path>







				<path d="M151.23 48.458c6.844-6.208 14.342-11.905 22.945-17.036 45.682-27.243 97.903-25.48 115.783 3.71 10.127 16.541 7.273 38.396-5.411 59.192 -0.376 0.539-0.615 2.109 0.688 0.276 14.729-22.009 18.881-46.493 8.088-64.121C275.32 1.085 223.127 0.358 177.129 27.791c-10.068 6.006-19.014 12.901-26.667 20.322C149.548 48.989 148.822 50.59 151.23 48.458" class="pL" fill="#B4A5C2"></path>







				<path d="M226.955 81.696c11.375-18.78 13.014-45.597-0.318-62.421C204.672-8.44 152.753-4.712 109.73 28.334c-3.774 2.902-7.354 5.93-10.726 9.06 -1.248 1.25-0.735 1.741 0.632 0.501 2.273-1.973 4.624-3.904 7.069-5.78 42.934-32.98 95.174-37.028 116.668-9.041 11.799 15.362 12.735 39.991 3.029 58.3C225.209 83.457 225.729 84.182 226.955 81.696" class="pL" fill="#B4A5C2"></path>







                </svg>