<?xml version="1.0" encoding="iso-8859-1"?>
<!-- Generator: Adobe Illustrator 19.0.0, SVG Export Plug-In . SVG Version: 6.00 Build 0)  -->
<svg version="1.1" id="Layer_1" xmlns="http://www.w3.org/2000/svg" xmlns:xlink="http://www.w3.org/1999/xlink" x="0px" y="0px"
	 viewBox="0 0 512.001 512.001" style="enable-background:new 0 0 512.001 512.001;" xml:space="preserve">
<g>
	<g>
		<path d="M255.999,189.625c-64.48,0-114.99,29.155-114.99,66.374c0.001,37.22,50.51,66.375,114.99,66.375
			s114.99-29.155,114.99-66.375C370.989,218.78,320.479,189.625,255.999,189.625z M255.999,305.967
			c-53.436,0-98.581-22.881-98.581-49.967c0.001-27.084,45.146-49.966,98.581-49.966c53.437,0,98.581,22.881,98.581,49.966
			C354.58,283.086,309.434,305.967,255.999,305.967z"/>
	</g>
</g>
<g>
	<g>
		<path d="M255.999,213.649c-23.353,0-42.351,18.999-42.351,42.352s18.999,42.352,42.351,42.352
			c23.353,0,42.352-18.999,42.352-42.352C298.351,232.648,279.352,213.649,255.999,213.649z M255.999,281.944
			c-14.305,0-25.942-11.638-25.942-25.943s11.638-25.943,25.942-25.943c14.305,0,25.943,11.638,25.943,25.943
			S270.304,281.944,255.999,281.944z"/>
	</g>
</g>
<g>
	<g>
		<path d="M223.271,159.207l-56.675-67.614c-1.559-1.86-3.862-2.935-6.288-2.935h-47.247c-4.531,0-8.204,3.673-8.204,8.204
			c0,4.532,3.673,8.204,8.204,8.204h43.42l54.214,64.68c1.623,1.937,3.949,2.935,6.292,2.935c1.86,0,3.73-0.629,5.266-1.917
			C225.726,167.854,226.182,162.68,223.271,159.207z"/>
	</g>
</g>
<g>
	<g>
		<path d="M72.796,29.276H25.548c-4.531,0-8.204,3.673-8.204,8.204s3.673,8.204,8.204,8.204h47.247c4.531,0,8.204-3.673,8.204-8.204
			C81,32.949,77.327,29.276,72.796,29.276z"/>
	</g>
</g>
<g>
	<g>
		<path d="M72.796,58.967H25.548c-4.531,0-8.204,3.673-8.204,8.204s3.673,8.204,8.204,8.204h47.247c4.531,0,8.204-3.673,8.204-8.204
			S77.327,58.967,72.796,58.967z"/>
	</g>
</g>
<g>
	<g>
		<path d="M72.796,88.658H25.548c-4.531,0-8.204,3.673-8.204,8.204c0,4.532,3.673,8.204,8.204,8.204h47.247
			c4.531,0,8.204-3.672,8.204-8.204C81,92.332,77.327,88.658,72.796,88.658z"/>
	</g>
</g>
<g>
	<g>
		<path d="M398.937,88.658H351.69c-2.427,0-4.729,1.074-6.288,2.935l-56.675,67.614c-2.911,3.473-2.455,8.647,1.017,11.558
			c1.537,1.288,3.406,1.917,5.266,1.917c2.343,0,4.67-0.999,6.292-2.935l54.215-64.68h43.419c4.532,0,8.204-3.672,8.204-8.204
			C407.142,92.332,403.469,88.658,398.937,88.658z"/>
	</g>
</g>
<g>
	<g>
		<path d="M486.451,29.276h-47.247c-4.532,0-8.204,3.673-8.204,8.204s3.672,8.204,8.204,8.204h47.247
			c4.532,0,8.204-3.673,8.204-8.204C494.655,32.949,490.983,29.276,486.451,29.276z"/>
	</g>
</g>
<g>
	<g>
		<path d="M486.451,58.967h-47.247c-4.532,0-8.204,3.673-8.204,8.204s3.672,8.204,8.204,8.204h47.247
			c4.532,0,8.204-3.673,8.204-8.204S490.983,58.967,486.451,58.967z"/>
	</g>
</g>
<g>
	<g>
		<path d="M486.451,88.658h-47.247c-4.532,0-8.204,3.673-8.204,8.204c0,4.532,3.672,8.204,8.204,8.204h47.247
			c4.532,0,8.204-3.672,8.204-8.204C494.655,92.331,490.983,88.658,486.451,88.658z"/>
	</g>
</g>
<g>
	<g>
		<path d="M222.254,341.236c-3.473-2.911-8.647-2.455-11.558,1.017l-54.214,64.679h-43.42c-4.531,0-8.204,3.673-8.204,8.204
			c0,4.532,3.673,8.204,8.204,8.204h47.247v0.001c2.426,0,4.729-1.073,6.288-2.934l56.675-67.614
			C226.182,349.322,225.726,344.147,222.254,341.236z"/>
	</g>
</g>
<g>
	<g>
		<path d="M72.796,466.317H25.548c-4.531,0-8.204,3.672-8.204,8.204c0,4.531,3.673,8.204,8.204,8.204h47.247
			c4.531,0,8.204-3.673,8.204-8.204S77.327,466.317,72.796,466.317z"/>
	</g>
</g>
<g>
	<g>
		<path d="M72.796,436.625H25.548c-4.531,0-8.204,3.673-8.204,8.204c0,4.531,3.673,8.204,8.204,8.204h47.247
			c4.531,0,8.204-3.673,8.204-8.204C81,440.299,77.327,436.625,72.796,436.625z"/>
	</g>
</g>
<g>
	<g>
		<path d="M72.796,406.933H25.548c-4.531,0-8.204,3.673-8.204,8.204c0,4.532,3.673,8.204,8.204,8.204h47.247
			c4.531,0,8.204-3.672,8.204-8.204C81,410.608,77.327,406.933,72.796,406.933z"/>
	</g>
</g>
<g>
	<g>
		<path d="M398.937,406.933h-43.419l-54.216-64.679c-2.91-3.472-8.084-3.928-11.558-1.017c-3.472,2.911-3.928,8.086-1.017,11.558
			l56.675,67.614c1.559,1.86,3.86,2.934,6.288,2.934h47.247c4.532,0,8.204-3.672,8.204-8.204
			C407.142,410.608,403.469,406.933,398.937,406.933z"/>
	</g>
</g>
<g>
	<g>
		<path d="M486.451,466.317h-47.247c-4.532,0-8.204,3.672-8.204,8.204c0,4.531,3.672,8.204,8.204,8.204h47.247
			c4.532,0,8.204-3.673,8.204-8.204S490.983,466.317,486.451,466.317z"/>
	</g>
</g>
<g>
	<g>
		<path d="M486.451,436.625h-47.247c-4.532,0-8.204,3.673-8.204,8.204c0,4.531,3.672,8.204,8.204,8.204h47.247
			c4.532,0,8.204-3.673,8.204-8.204C494.655,440.299,490.983,436.625,486.451,436.625z"/>
	</g>
</g>
<g>
	<g>
		<path d="M486.451,406.933h-47.247c-4.532,0-8.204,3.673-8.204,8.204c0,4.532,3.672,8.204,8.204,8.204h47.247
			c4.532,0,8.204-3.672,8.204-8.204C494.655,410.608,490.983,406.933,486.451,406.933z"/>
	</g>
</g>
<g>
	<g>
		<path d="M403.676,46.864C360.335,16.206,309.27,0.001,255.999,0.001S151.661,16.206,108.318,46.867
			c-3.699,2.617-4.577,7.736-1.96,11.436c1.561,2.205,4.124,3.401,6.707,3.42c1.655,0.012,3.318-0.461,4.73-1.459
			C158.351,31.574,206.142,16.409,256,16.409c49.857,0,97.646,15.163,138.201,43.851c3.7,2.617,8.82,1.738,11.436-1.96
			C408.253,54.6,407.376,49.479,403.676,46.864z"/>
	</g>
</g>
<g>
	<g>
		<path d="M476.883,126.513c-2.297-3.906-7.323-5.213-11.23-2.919c-3.906,2.296-5.214,7.323-2.919,11.23
			c21.494,36.59,32.857,78.493,32.857,121.177c0,45.581-12.847,89.915-37.152,128.209c-2.428,3.824-1.296,8.895,2.53,11.322
			c1.364,0.865,2.886,1.279,4.39,1.279c2.714,0,5.371-1.347,6.934-3.809c25.976-40.927,39.707-88.302,39.707-137.002
			C512.001,210.397,499.858,165.62,476.883,126.513z"/>
	</g>
</g>
<g>
	<g>
		<path d="M399.945,457.89c-2.51-3.773-7.605-4.796-11.375-2.285c-39.307,26.16-85.148,39.987-132.57,39.987
			s-93.266-13.828-132.574-39.989c-3.772-2.511-8.865-1.487-11.376,2.284c-2.51,3.772-1.488,8.865,2.284,11.376
			c42.008,27.959,90.996,42.738,141.665,42.738c50.667,0,99.653-14.778,141.661-42.735
			C401.433,466.755,402.457,461.662,399.945,457.89z"/>
	</g>
</g>
<g>
	<g>
		<path d="M54.275,385.327C29.503,346.77,16.409,302.05,16.409,256.001c0-42.685,11.361-84.587,32.857-121.176
			c2.295-3.907,0.988-8.935-2.919-11.23c-3.904-2.294-8.934-0.989-11.23,2.919C12.144,165.62,0,210.396,0,256.001
			c0,49.201,13.993,96.988,40.469,138.195c1.568,2.439,4.212,3.771,6.91,3.771c1.518,0,3.054-0.421,4.427-1.303
			C55.619,394.216,56.724,389.139,54.275,385.327z"/>
	</g>
</g>
<g>
</g>
<g>
</g>
<g>
</g>
<g>
</g>
<g>
</g>
<g>
</g>
<g>
</g>
<g>
</g>
<g>
</g>
<g>
</g>
<g>
</g>
<g>
</g>
<g>
</g>
<g>
</g>
<g>
</g>
</svg>
